<?xml version="1.0" encoding="utf-8"?>
<!-- Generator: Adobe Illustrator 23.1.0, SVG Export Plug-In . SVG Version: 6.00 Build 0)  -->
<svg version="1.1" id="Layer_1" xmlns="http://www.w3.org/2000/svg" xmlns:xlink="http://www.w3.org/1999/xlink" x="0px" y="0px"
	 viewBox="0 0 33 33" style="enable-background:new 0 0 33 33;" xml:space="preserve">
<style type="text/css">
	.st0{fill:#FFFFFF;}
</style>
<g>
	<g>
		<path class="st0" d="M14.11,27.74c-3.64,0-7.06-1.42-9.64-3.99c-5.31-5.31-5.31-13.96,0-19.28c5.31-5.31,13.96-5.31,19.28,0
			c2.57,2.57,3.99,6,3.99,9.64s-1.42,7.06-3.99,9.64l0,0l0,0C21.17,26.32,17.75,27.74,14.11,27.74z M14.11,2.88
			c-2.88,0-5.75,1.09-7.94,3.28c-4.38,4.38-4.38,11.5,0,15.88c2.12,2.12,4.94,3.29,7.94,3.29s5.82-1.17,7.94-3.29l0,0
			c2.12-2.12,3.29-4.94,3.29-7.94s-1.17-5.82-3.29-7.94C19.86,3.98,16.98,2.88,14.11,2.88z"/>
	</g>
	<g>
		<path class="st0" d="M31.68,32.28c-0.15,0-0.31-0.06-0.42-0.18l-8.83-8.83c-0.23-0.23-0.23-0.61,0-0.85
			c0.23-0.23,0.61-0.23,0.85,0l8.83,8.83c0.23,0.23,0.23,0.61,0,0.85C31.98,32.22,31.83,32.28,31.68,32.28z"/>
	</g>
</g>
</svg>
